<?xml version="1.0" encoding="utf-8"?>
<!-- Generator: Adobe Illustrator 18.1.1, SVG Export Plug-In . SVG Version: 6.00 Build 0)  -->
<svg version="1.1" id="Layer_1" xmlns="http://www.w3.org/2000/svg" xmlns:xlink="http://www.w3.org/1999/xlink" x="0px" y="0px"
	 viewBox="0 0 1553.3 362.8" enable-background="new 0 0 1553.3 362.8" xml:space="preserve">
<g>
	<path fill="#FFFFFF" d="M1368.6,123.9c-19.5,0-27.7,6.4-32.7,13.3h-0.9l0,0l-6.6-10.1h-23v126.5h38.9v-80v0c0,0,0,0,0,0v0
		c0-9.1,7.4-16.4,16.4-16.4c9.1,0,16.4,7.4,16.4,16.4v0v0l0,0v80h38.9v-82.2C1416,145.5,1394,123.9,1368.6,123.9z"/>
	<path fill="#FFFFFF" d="M1528.2,225.5c-7.1,2.3-14.6,3.5-22.8,3.5c-21.8,0-33.4-9.2-34.7-27.6h82.5V185c0-18.9-5.1-33.9-15.4-44.7
		c-10.3-10.9-24.4-16.3-42.6-16.3c-12.2,0-23.1,2.9-32.8,8.8c-9.7,5.8-17.2,14-22.5,24.3c-5.3,10.4-8,22.1-8,35.2
		c0,20.4,5.6,36.3,16.9,47.5c11.3,11.2,27.1,16.9,47.6,16.9c18.7,0,33.9-3.1,45.6-9.4v-0.3L1528.2,225.5z M1478.8,158.1
		c4.7-5.2,10.1-7.8,16.3-7.8c14.7,0,22,9.1,22,27.2h-46.6C1471.3,169.8,1474.1,163.3,1478.8,158.1z"/>
	<path fill="#FFFFFF" d="M623.3,85.5h-32.1v111.5c0,12.5,0,15.8-2.6,18.4c-2.3,2.3-6.8,2.3-11.4,2.3h-16.7l-21,35.9h36.9
		c17.7,0,30.9-0.8,40.8-7.8c11.2-7.8,13-20.5,13-47.5V95.9L623.3,85.5z"/>
	<polygon fill="#FFFFFF" points="861.7,127.1 828.8,208.9 827.8,208.9 794.8,127.1 767,127.1 767,148 809.5,253.6 847.1,253.6 
		889.6,148 889.6,127.1 	"/>
	<polygon fill="#FFFFFF" points="1131.6,217.7 1072.2,217.7 1144.6,108.5 1144.6,85.5 1026.7,85.5 1026.7,107 1033.5,117.5 
		1094.8,117.5 1019.8,230.5 1019.8,253.6 1154.9,253.6 	"/>
	<path fill="#FFFFFF" d="M1000.2,253.6v-75.2c0-36.3-18.2-54.4-54.6-54.4c-7.2,0-15.9,1.1-25.9,3.4c-4.2,0.9-8,1.9-11.3,2.9V148
		l5,7.7c8.7-3.4,17.7-5.1,27.1-5.1c15.1,0,22.7,7,22.7,20.9l-28.1,3.5c-29.3,3.9-44,18.2-44,42.9c0,11.7,3.6,21.1,10.8,28.1
		c7.2,7,16.9,10.5,29.1,10.5c3,0,28.1-0.5,34.9-12.9h0.5l0,0l6.4,9.9H1000.2z M959.7,222.2c-4.7,5.1-10.7,7.6-18,7.6
		c-5.5,0-9.7-1.4-12.8-4.3c-3-2.9-4.5-6.5-4.5-11c0-10,6.4-15.7,19.2-17.3l23.2-3v8.6C966.7,210.7,964.4,217.1,959.7,222.2z"/>
	<path fill="#FFFFFF" d="M755.8,253.6v-75.2c0-36.3-18.2-54.4-54.6-54.4c-7.2,0-15.9,1.1-25.9,3.4c-4.2,0.9-8,1.9-11.3,2.9V148
		l5,7.7c8.7-3.4,17.7-5.1,27.1-5.1c15.1,0,22.7,7,22.7,20.9l-28.1,3.5c-29.3,3.9-44,18.2-44,42.9c0,11.7,3.6,21.1,10.8,28.1
		c7.2,7,16.9,10.5,29.1,10.5c3,0,28.1-0.5,34.9-12.9h0.5l0,0l6.4,9.9H755.8z M715.3,222.2c-4.7,5.1-10.7,7.6-18,7.6
		c-5.5,0-9.7-1.4-12.8-4.3c-3-2.9-4.5-6.5-4.5-11c0-10,6.4-15.7,19.2-17.3l23.2-3v8.6C722.3,210.7,720,217.1,715.3,222.2z"/>
	<path fill="#FFFFFF" d="M1285.8,188.6c0,20.9-6.2,37.5-18.6,49.7c-12.4,12.2-29.2,18.3-50.5,18.3c-20.8,0-37.3-5.8-49.5-17.5
		c-12.2-11.7-18.3-27.8-18.3-48.3c0-20.9,6.3-37.3,18.8-49.1c12.5-11.8,29.4-17.7,50.8-17.7c20.8,0,37.2,5.9,49.2,17.6
		C1279.8,153.3,1285.8,169,1285.8,188.6z M1246.1,189.3c0-23.6-9.4-35.5-28.3-35.5c-9.2,0-16.4,3.2-21.5,9.5
		c-5.1,6.3-7.7,15.3-7.7,26.9c0,24.3,9.8,36.4,29.4,36.4C1236.7,226.7,1246.1,214.3,1246.1,189.3z"/>
</g>
<g>
	<g>
		<g>
			<polygon fill="#F58646" points="0,356.4 438.5,231.1 468.5,0 			"/>
		</g>
		<polygon fill="#A11C38" points="457,349.4 16.8,22.2 152.3,312.9 263.8,362.8 		"/>
		<g>
			<polygon fill="#F05350" points="308.9,121.4 16.8,22.2 457,349.4 			"/>
		</g>
		<polygon fill="#FCAF1A" points="166.3,73 0,356.4 468.5,0 		"/>
	</g>
</g>
</svg>
